HIERARCHY
ROOT Hips
{
	OFFSET 0.00000 0.00000 0.00000
	CHANNELS 6 Xposition Yposition Zposition Zrotation Yrotation Xrotation 
	JOINT LHipJoint
	{
		OFFSET 0 0 0
		CHANNELS 3 Zrotation Yrotation Xrotation
		JOINT LeftHip
		{
			OFFSET 1.58161 -1.81893 0.78828
			CHANNELS 3 Zrotation Yrotation Xrotation
			JOINT LeftKnee
			{
				OFFSET 2.53374 -6.96141 0.00000
				CHANNELS 3 Zrotation Yrotation Xrotation
				JOINT LeftAnkle
				{
					OFFSET 2.63509 -7.23986 0.00000
					CHANNELS 3 Zrotation Yrotation Xrotation
					JOINT LeftToe
					{
						OFFSET 0.14115 -0.38781 2.05350
						CHANNELS 3 Zrotation Yrotation Xrotation
						End Site
						{
							OFFSET 0.00000 -0.00000 1.05543
						}
					}
				}
			}
		}
	}
	JOINT RHipJoint
	{
		OFFSET 0 0 0
		CHANNELS 3 Zrotation Yrotation Xrotation
		JOINT RightHip
		{
			OFFSET -1.11138 -1.81893 0.78828
			CHANNELS 3 Zrotation Yrotation Xrotation
			JOINT RightKnee
			{
				OFFSET -2.58392 -7.09926 0.00000
				CHANNELS 3 Zrotation Yrotation Xrotation
				JOINT RightAnkle
				{
					OFFSET -2.66423 -7.31992 0.00000
					CHANNELS 3 Zrotation Yrotation Xrotation
					JOINT RightToe
					{
						OFFSET -0.18831 -0.51739 2.12114
						CHANNELS 3 Zrotation Yrotation Xrotation
						End Site
						{
							OFFSET -0.00000 -0.00000 1.09845
						}
					}
				}
			}
		}
	}
	JOINT lowerback
	{
		OFFSET 0 0 0
		CHANNELS 3 Zrotation Yrotation Xrotation
		JOINT Chest
		{
			OFFSET -0.01511 1.97958 -0.08829
			CHANNELS 3 Zrotation Yrotation Xrotation
			JOINT Chest2
			{
				OFFSET 0.08344 1.97334 -0.04330
				CHANNELS 3 Zrotation Yrotation Xrotation
				JOINT lowerneck
				{
					OFFSET 0 0 0
					CHANNELS 3 Zrotation Yrotation Xrotation
					JOINT Neck
					{
						OFFSET 0.00559 1.76246 0.31246
						CHANNELS 3 Zrotation Yrotation Xrotation
						JOINT Head
						{
							OFFSET -0.07011 1.80354 -0.30524
							CHANNELS 3 Zrotation Yrotation Xrotation
							End Site
							{
								OFFSET -0.02385 1.83547 -0.13906
							}
						}
					}
				}
				JOINT LeftCollar
				{
					OFFSET 0 0 0
					CHANNELS 3 Zrotation Yrotation Xrotation
					JOINT LeftShoulder
					{
						OFFSET 3.20667 1.30156 -0.60240
CHANNELS 3 Zrotation Xrotation Yrotation
						JOINT LeftElbow
						{
OFFSET 0 -4.956630 0.000000
CHANNELS 3 Zrotation Xrotation Yrotation
							JOINT LeftWrist
							{
OFFSET 0 -3.381770 0.000000
CHANNELS 3 Zrotation Xrotation Yrotation
								JOINT lhand
								{
									OFFSET 0 0 0
CHANNELS 3 Zrotation Xrotation Yrotation
									JOINT LFingers
									{
OFFSET 0 -0.662910 0.000000
CHANNELS 3 Zrotation Xrotation Yrotation
										End Site
										{
OFFSET 0 -0.534450 0.000000
										}
									}
								}
								JOINT LThumb
								{
OFFSET 0 0.000000 0.000000
CHANNELS 3 Zrotation Xrotation Yrotation
									End Site
									{
OFFSET 0 -0.542610 0.542610
									}
								}
							}
						}
					}
				}
				JOINT RightCollar
				{
					OFFSET 0 0 0
					CHANNELS 3 Zrotation Yrotation Xrotation
					JOINT RightShoulder
					{
						OFFSET -3.06877 1.34672 -0.60964
CHANNELS 3 Zrotation Xrotation Yrotation
						JOINT RightElbow
						{
OFFSET 0 -5.083650 0.000000
CHANNELS 3 Zrotation Xrotation Yrotation
							JOINT RightWrist
							{
OFFSET 0 -3.359840 0.000000
CHANNELS 3 Zrotation Xrotation Yrotation
								JOINT rhand
								{
									OFFSET 0 0 0
CHANNELS 3 Zrotation Xrotation Yrotation
									JOINT RFingers
									{
OFFSET 0 -0.820760 0.000000
CHANNELS 3 Zrotation Xrotation Yrotation
										End Site
										{
OFFSET 0 -0.661720 0.000000
										}
									}
								}
								JOINT RThumb
								{
OFFSET 0 0.000000 0.000000
CHANNELS 3 Zrotation Xrotation Yrotation
									End Site
									{
OFFSET 0 -0.671820 0.671820
									}
								}
							}
						}
					}
				}
			}
		}
	}
}
MOTION
Frames: 6
Frame Time: 0.008333333333333333
-10.710020 18.068104 4.536752 -114.692997 87.800905 -95.194042 0.000000 0.000000 0.000000 -9.252846 -6.554983 -30.950998 1.201643 6.955068 19.582419 -0.090390 -8.875364 -4.333017 0.775854 -5.624029 -15.697468 0.000000 0.000000 0.000000 11.601207 6.118402 -30.137676 -1.897608 -8.649449 24.704602 -0.001677 -7.712044 -11.033257 -0.097835 2.016908 -5.552446 -0.826614 1.337370 3.355857 4.015007 1.857584 5.611124 4.630098 0.884790 3.757448 2.066599 -1.437271 -12.145019 -4.510620 1.407418 40.693616 -1.960751 0.937646 16.815688 0.000000 0.000000 0.000000 -9.396392 -23.465538 -81.985777 25.305355 -36.514391 8.470919 21.653908 -30.234609 -63.280772 0.000000 0.000000 0.000000 -7.125000 0.000000 0.000000 168.420925 5.335932 -10.677835 0.000000 0.000000 0.000000 2.831149 -16.203483 54.904326 -29.113764 -40.121556 -10.833940 -31.827896 -46.035195 6.728883 0.000000 0.000000 0.000000 7.125000 0.000000 0.000000 -4.339035 37.853148 -0.765298
-10.709948 18.068504 4.535157 -121.264998 87.640130 -101.721220 0.000000 0.000000 0.000000 -9.211855 -6.620305 -31.014439 1.190505 6.923838 19.489826 -0.109071 -9.171684 -4.190001 0.747452 -5.521984 -15.403689 0.000000 0.000000 0.000000 11.699540 5.893414 -30.182944 -1.893222 -8.639961 24.675475 0.008443 -7.827499 -10.981038 -0.129140 2.310272 -6.364191 -0.632959 1.339509 3.310915 4.020440 1.862020 5.580039 4.526536 0.894936 3.754692 2.080936 -1.460050 -12.140003 -4.465841 1.361852 40.713322 -1.950386 0.930603 16.822084 0.000000 0.000000 0.000000 -9.353992 -23.470242 -82.030026 25.288824 -36.497696 8.461111 22.409553 -29.576146 -63.125116 0.000000 0.000000 0.000000 -7.125000 0.000000 0.000000 168.672314 5.287070 -10.446408 0.000000 0.000000 0.000000 2.886132 -16.162709 54.949442 -29.115447 -40.123095 -10.835039 -32.122916 -46.108721 6.676009 0.000000 0.000000 0.000000 7.125000 0.000000 0.000000 -4.592339 37.812466 -0.814701
-10.710020 18.069559 4.533741 -127.506559 87.498965 -107.941768 0.000000 0.000000 0.000000 -9.233903 -6.681153 -31.057934 1.180188 6.894843 19.404208 -0.127486 -9.456242 -4.054305 0.721678 -5.428107 -15.133853 0.000000 0.000000 0.000000 11.732056 5.667156 -30.202894 -1.890761 -8.634643 24.659029 0.011400 -7.878039 -10.990170 -0.134225 2.361025 -6.504465 -0.487241 1.330470 3.297499 4.011552 1.851651 5.549784 4.434291 0.896141 3.735501 2.122536 -1.469776 -12.107574 -4.452561 1.334537 40.693069 -1.955111 0.930059 16.800646 0.000000 0.000000 0.000000 -9.301847 -23.459074 -82.020879 25.264160 -36.472720 8.446452 20.002050 -31.690002 -63.208306 0.000000 0.000000 0.000000 -7.125000 0.000000 0.000000 167.970835 5.081219 -11.174904 0.000000 0.000000 0.000000 2.925273 -16.058043 54.979224 -29.188100 -40.187189 -10.881908 -32.261559 -46.148394 6.639307 0.000000 0.000000 0.000000 7.125000 0.000000 0.000000 -4.711088 37.779348 -0.839648
-10.710276 18.070244 4.533803 -132.274392 87.367669 -112.721955 0.000000 0.000000 0.000000 -9.283103 -6.663186 -31.080869 1.169504 6.864591 19.314920 -0.145716 -9.726440 -3.918930 0.705914 -5.369974 -14.966949 0.000000 0.000000 0.000000 11.738915 5.529692 -30.173419 -1.891185 -8.635634 24.662067 0.011707 -7.942837 -11.078099 -0.121089 2.240818 -6.171744 -0.434008 1.320748 3.326044 4.035757 1.840541 5.536083 4.428274 0.893217 3.706818 2.148812 -1.460201 -12.091315 -4.468445 1.345056 40.641855 -1.963410 0.936827 16.768918 0.000000 0.000000 0.000000 -9.252149 -23.463677 -81.986995 25.254847 -36.463334 8.440937 17.255009 -34.153334 -63.188060 0.000000 0.000000 0.000000 -7.125000 0.000000 0.000000 167.188421 4.758286 -12.017129 0.000000 0.000000 0.000000 2.902448 -15.949979 55.036219 -29.316912 -40.300477 -10.965161 -32.338250 -46.199445 6.615360 0.000000 0.000000 0.000000 7.125000 0.000000 0.000000 -4.776698 37.756697 -0.854037
-10.710388 18.069575 4.534979 -136.074639 87.228142 -116.546312 0.000000 0.000000 0.000000 -9.335582 -6.601974 -31.096312 1.158085 6.832041 19.218810 -0.163938 -9.981009 -3.775218 0.685219 -5.291496 -14.742100 0.000000 0.000000 0.000000 11.740927 5.456515 -30.125436 -1.894791 -8.643489 24.686356 0.014386 -8.066603 -11.202417 -0.111673 2.153962 -5.931441 -0.465123 1.310180 3.364732 4.108206 1.827823 5.534191 4.520667 0.885644 3.681465 2.117642 -1.444498 -12.099516 -4.491737 1.383131 40.589354 -1.960142 0.944400 16.744625 0.000000 0.000000 0.000000 -9.233949 -23.489200 -81.978295 25.262170 -36.470798 8.445298 16.285314 -35.121223 -62.969126 0.000000 0.000000 0.000000 -7.125000 0.000000 0.000000 166.952574 4.455021 -12.324739 0.000000 0.000000 0.000000 2.804319 -15.880763 55.135441 -29.450679 -40.417804 -11.051762 -32.435634 -46.269859 6.604764 0.000000 0.000000 0.000000 7.125000 0.000000 0.000000 -4.860294 37.751186 -0.869731
-10.710112 18.067380 4.535629 -140.349374 87.067394 -120.823122 0.000000 0.000000 0.000000 -9.387375 -6.611156 -31.112201 1.145804 6.796959 19.115363 -0.181268 -10.200858 -3.620870 0.641206 -5.122331 -14.257931 0.000000 0.000000 0.000000 11.733243 5.339503 -30.120534 -1.901504 -8.657874 24.730805 0.020667 -8.220544 -11.295217 -0.122439 2.255118 -6.211435 -0.517659 1.297642 3.369406 4.196227 1.811406 5.524915 4.642486 0.874928 3.666886 2.036411 -1.448795 -12.106018 -4.501465 1.406773 40.563096 -1.944486 0.941863 16.733367 0.000000 0.000000 0.000000 -9.264307 -23.516236 -82.049141 25.268777 -36.477429 8.449165 17.460782 -34.210941 -62.771137 0.000000 0.000000 0.000000 -7.125000 0.000000 0.000000 167.331148 4.375357 -11.968393 0.000000 0.000000 0.000000 2.675056 -15.853935 55.228525 -29.527965 -40.485361 -11.101883 -32.567653 -46.352043 6.588720 0.000000 0.000000 0.000000 7.125000 0.000000 0.000000 -4.973508 37.741703 -0.891347
